<svg xmlns="http://www.w3.org/2000/svg" width="75" height="77" fill="none" viewBox="0 0 75 77"><path fill="#E6EBFF" fill-rule="evenodd" d="M52 4a8 8 0 0 1 8 8v40a8 8 0 0 1-8 8H12a8 8 0 0 1-8-8V12a8 8 0 0 1 8-8h40ZM22 36h-4v6h-6v4h6v6h4v-6h6v-4h-6v-6Zm29.828-21L49 12.172l-5 5-5-5L36.172 15l5 5-5 5L39 27.828l5-5 5 5L51.828 25l-5-5 5-5ZM12 18v4h16v-4H12Zm24 20h16v4H36v-4Zm0 8v4h16v-4H36Z" clip-rule="evenodd"/><rect width="41" height="41" x="31.5" y="33.5" fill="#E6EBFF" rx="20.5"/><rect width="41" height="41" x="31.5" y="33.5" stroke="#293464" stroke-width="5" rx="20.5"/><path fill="#293464" fill-rule="evenodd" d="m55.72 43.47 7.05 5.287-.9 1.2-6.15-4.612-6.15 4.612-.9-1.2 7.05-5.287Z" clip-rule="evenodd"/><path fill="#293464" d="M50.72 50.97v3.187c0 .967.784 1.75 1.75 1.75h1.75v-3.5h3v3.5h1.75a1.75 1.75 0 0 0 1.75-1.75V50.97l-5-3.75-5 3.75ZM60.161 61.113l-7.409 2.914a3.999 3.999 0 0 1-2.112.18l-5.92-1.098v-4.827l.522-.44a3.947 3.947 0 0 1 5.077-.02l.402.335h1.5a2 2 0 0 1 2 1.998v.252h-4.25v.25l4.098.41a1 1 0 0 0 1.08-.799l.072-.36 4.597-.45a.855.855 0 0 1 .343 1.655ZM43.22 56.907v7.5h-2v-7.5h2Z"/></svg>