<svg xmlns="http://www.w3.org/2000/svg" width="112" height="24" fill="none" viewBox="0 0 112 24"><path fill="#FF603F" d="M28.951 18.19a9.42 9.42 0 1 0-6.91-.017l1.441-3.628a5.516 5.516 0 1 1 4.047.01l1.422 3.636ZM21.763 23.22a9.42 9.42 0 0 0 7.57-.027l-1.83-4.133a4.899 4.899 0 0 1-3.937.014l-1.803 4.145Z"/><path fill="#1F1F1F" d="M.002.867h4.043v6.32h6.134V.867h4.043v16.266H10.18V10.58H4.045v6.553H.002V.867ZM102.281 4.26h-.813L96.96 17.133h-4.183L98.726.867h6.413l5.902 16.265h-4.183L102.281 4.26Zm-5.159 6.227h9.481v3.393h-9.48v-3.393ZM76.277 9c0-1.209.194-2.316.581-3.323a8.04 8.04 0 0 1 1.673-2.65 7.484 7.484 0 0 1 2.603-1.719C82.14.905 83.248.704 84.457.704c1.827 0 3.392.457 4.693 1.371 1.301.899 2.23 2.138 2.788 3.718l-3.508.767c-.279-.574-.612-1.038-1-1.395a3.568 3.568 0 0 0-1.324-.813 5.05 5.05 0 0 0-1.65-.255c-.867 0-1.61.216-2.23.65-.62.434-1.092 1.023-1.418 1.766-.325.728-.488 1.557-.488 2.486 0 .945.163 1.79.488 2.533a4.14 4.14 0 0 0 1.418 1.743c.62.418 1.363.627 2.23.627a5.48 5.48 0 0 0 1.697-.255c.526-.186.999-.48 1.417-.883.418-.419.775-.96 1.069-1.627l3.416.697c-.558 1.735-1.495 3.083-2.812 4.043-1.317.945-2.912 1.418-4.786 1.418-1.209 0-2.316-.202-3.323-.604a7.65 7.65 0 0 1-2.603-1.697 8.097 8.097 0 0 1-1.673-2.625c-.387-1.023-.58-2.146-.58-3.37ZM73.647 17.318c-.728 0-1.317-.209-1.766-.627a2.124 2.124 0 0 1-.65-1.557c0-.62.216-1.138.65-1.557.45-.433 1.038-.65 1.766-.65s1.309.217 1.743.65c.449.419.674.938.674 1.557 0 .604-.225 1.123-.674 1.557-.434.418-1.015.627-1.743.627ZM69.715 4.26h-8.156v3.044h6.088v3.16h-6.088v3.276h8.156v3.393h-12.2V.867h12.2V4.26ZM40.756 17.133h-4.043V.867h4.786l4.462 11.037L50.422.867h4.787v16.266h-4.043V7.815l-3.555 9.317h-3.3l-3.555-9.317v9.317Z"/></svg>