<svg xmlns="http://www.w3.org/2000/svg" width="40" height="40" fill="none" viewBox="0 0 40 40"><g clip-path="url(#a)"><path fill="#B6B6B6" stroke="#B6B6B6" d="M20 5.834c.144 0 .285.037.41.107l.117.081 14.666 12 .007.005.02.015v.001a.833.833 0 0 1 .282.484l.01.082a.833.833 0 0 1-.142.542l-.05.067a.833.833 0 0 1-.485.281l-.082.012a.833.833 0 0 1-.542-.144l-.066-.05-.006-.005-1.823-1.49-.816-.669v16.181a.834.834 0 0 1-.834.833H9.333a.833.833 0 0 1-.528-.189l-.06-.055a.833.833 0 0 1-.245-.589v-16.18l-.816.667-1.818 1.487a.833.833 0 0 1-.525.18l-.081-.006a.833.833 0 0 1-.501-.24l-.055-.06a.833.833 0 0 1-.188-.523l.004-.082c.017-.19.1-.368.232-.504l.06-.055 14.66-11.996A.833.833 0 0 1 20 5.834Zm3.017 15.224-3.018 3.016-2.666-2.666-6.238 6.238-.355.354.355.354 1.884 1.885.354.354 4-4L20 29.26l5.61-5.61 2.89 2.891v-8.374h-8.374l2.89 2.89Z"/></g><defs><clipPath id="a"><path fill="#fff" d="M4 4h32v32H4z"/></clipPath></defs></svg>