<svg xmlns="http://www.w3.org/2000/svg" width="74" height="58" fill="none" viewBox="0 0 74 58"><path fill="#F45B3B" d="M51.62 38.877c6.808-2.63 12.472-7.525 16.017-13.838a30.67 30.67 0 0 0 3.401-20.745C69.692-2.8 65.882-9.21 60.263-13.827A31.639 31.639 0 0 0 40.26-21a31.642 31.642 0 0 0-20.04 7.071C14.576-9.339 10.732-2.95 9.349 4.138A30.667 30.667 0 0 0 12.641 24.9c3.512 6.331 9.15 11.254 15.944 13.919l4.805-11.942a18.312 18.312 0 0 1-9.336-8.15A17.957 17.957 0 0 1 22.126 6.57a18.114 18.114 0 0 1 6.365-10.58 18.528 18.528 0 0 1 11.735-4.14c4.28.011 8.422 1.496 11.712 4.2a18.11 18.11 0 0 1 6.31 10.611c.789 4.155.084 8.45-1.991 12.147a18.315 18.315 0 0 1-9.379 8.103l4.743 11.966ZM27.584 55.266a31.736 31.736 0 0 0 12.62 2.604 31.737 31.737 0 0 0 12.615-2.624l-6.067-13.622a16.506 16.506 0 0 1-13.123.01l-6.045 13.632Z"/></svg>